<svg version="1.0" xmlns="http://www.w3.org/2000/svg"
 width="343.000000pt" height="343.000000pt" viewBox="0 0 343.000000 343.000000"
 preserveAspectRatio="xMidYMid meet">
<metadata>
Created by potrace 1.11, written by Peter Selinger 2001-2013
</metadata>
<g transform="translate(0.000000,343.000000) scale(0.100000,-0.100000)"
fill="#000000" stroke="none">
<path d="M85 2816 c-16 -7 -41 -26 -55 -41 l-25 -27 -3 -1022 -2 -1023 23 -34
c12 -19 38 -42 57 -51 33 -17 132 -18 1638 -18 1742 0 1627 -4 1682 55 l25 27
2 1022 3 1023 -23 34 c-12 19 -38 42 -57 51 -33 17 -131 18 -1635 18 -1311 -1
-1605 -3 -1630 -14z"/>
</g>
</svg>
