<?xml version="1.0" standalone="no"?>
<!DOCTYPE svg PUBLIC "-//W3C//DTD SVG 20010904//EN"
 "http://www.w3.org/TR/2001/REC-SVG-20010904/DTD/svg10.dtd">
<svg version="1.0" xmlns="http://www.w3.org/2000/svg"
 width="533.000000pt" height="533.000000pt" viewBox="0 0 533.000000 533.000000"
 preserveAspectRatio="xMidYMid meet">
<metadata>
Created by potrace 1.11, written by Peter Selinger 2001-2013
</metadata>
<g transform="translate(0.000000,533.000000) scale(0.100000,-0.100000)"
fill="#000000" stroke="none">
<path d="M1986 5117 c-8 -29 -39 -155 -70 -282 -30 -126 -80 -331 -110 -455
-30 -124 -78 -319 -106 -435 -28 -115 -80 -329 -115 -475 -36 -146 -90 -368
-120 -495 -75 -307 -176 -724 -281 -1150 -47 -192 -96 -397 -110 -455 -14 -58
-45 -186 -69 -285 -24 -99 -45 -189 -47 -199 -3 -22 0 -23 432 -206 146 -62
342 -145 437 -185 l172 -74 99 102 c55 56 117 120 138 143 46 48 471 490 559
580 33 34 135 140 227 236 91 95 204 212 250 259 46 47 165 171 265 275 231
241 279 290 543 564 271 280 320 333 320 341 0 3 -15 19 -34 35 -18 16 -88 81
-156 144 -67 63 -134 126 -149 140 -209 195 -308 287 -371 347 -41 39 -88 84
-105 99 -55 50 -278 258 -355 330 -41 40 -91 86 -110 104 -19 18 -87 81 -150
140 -63 59 -131 122 -150 140 -19 18 -89 83 -154 144 -66 61 -129 120 -141
131 -12 11 -55 52 -96 90 -41 39 -137 129 -214 200 -76 72 -156 147 -177 167
l-38 36 -14 -51z"/>
</g>
</svg>
